<svg xmlns="http://www.w3.org/2000/svg" viewBox="0 0 256 256" width="256" height="256">
  <defs>
    <linearGradient id="shieldGrad" x1="0%" y1="0%" x2="100%" y2="100%">
      <stop offset="0%" stop-color="#0a192f"/>
      <stop offset="100%" stop-color="#0f3460"/>
    </linearGradient>
    <linearGradient id="borderGrad" x1="0%" y1="0%" x2="100%" y2="100%">
      <stop offset="0%" stop-color="#00f2fe"/>
      <stop offset="100%" stop-color="#4facfe"/>
    </linearGradient>
    <filter id="glow" x="-20%" y="-20%" width="140%" height="140%">
      <feGaussianBlur stdDeviation="6" result="blur" />
      <feComposite in="SourceGraphic" in2="blur" operator="over"/>
    </filter>
  </defs>
  <path d="M128 20 C180 20 220 40 220 80 C220 160 160 215 128 236 C96 215 36 160 36 80 C36 40 76 20 128 20 Z" 
        fill="url(#shieldGrad)" stroke="url(#borderGrad)" stroke-width="10" filter="url(#glow)"/>
  <!-- Inner Lightning Bolt -->
  <polygon points="135,50 95,130 130,130 115,205 165,115 130,115" fill="#00f2fe" filter="url(#glow)"/>
  <polygon points="135,50 95,130 130,130 115,205 165,115 130,115" fill="#ffffff"/>
</svg>